HIERARCHY
ROOT Hips
{
	OFFSET 54.079498 -17.569614 94.194901
	CHANNELS 6 Xposition Yposition Zposition Xrotation Yrotation Zrotation
	JOINT spine
	{
		OFFSET 0.000000 -0.448574 7.800591
		CHANNELS 3 Xrotation Yrotation Zrotation
		JOINT spine1
		{
			OFFSET 0.000000 -0.000002 10.136398
			CHANNELS 3 Xrotation Yrotation Zrotation
			JOINT spine2
			{
				OFFSET 0.000000 0.000000 9.712509
				CHANNELS 3 Xrotation Yrotation Zrotation
				JOINT Neck
				{
					OFFSET 0.000000 -1.188875 24.936104
					CHANNELS 3 Xrotation Yrotation Zrotation
					JOINT Head
					{
						OFFSET 0.000000 0.000000 7.533844
						CHANNELS 3 Xrotation Yrotation Zrotation
						End Site
						{
							OFFSET 0.000000 6.014017 18.236099
						}
					}
				}
				JOINT RightShoulder
				{
					OFFSET -4.089649 0.569454 10.488792
					CHANNELS 3 Xrotation Yrotation Zrotation
					JOINT RightArm
					{
						OFFSET 0.000000 -0.000002 13.757004
						CHANNELS 3 Xrotation Yrotation Zrotation
						JOINT RightArmRoll
						{
							OFFSET 0.000000 -0.000002 6.944778
							CHANNELS 3 Xrotation Yrotation Zrotation
							JOINT RightForeArm
							{
								OFFSET 0.000000 -0.000004 20.227692
								CHANNELS 3 Xrotation Yrotation Zrotation
								JOINT RightForeArmRoll
								{
									OFFSET 0.000000 0.000000 7.793121
									CHANNELS 3 Xrotation Yrotation Zrotation
									JOINT RightHand
									{
										OFFSET 0.000000 -0.000004 15.639099
										CHANNELS 3 Xrotation Yrotation Zrotation
										End Site
										{
											OFFSET 0.000000 0.000000 0.100006
										}
									}
								}
							}
						}
					}
				}
				JOINT LeftShoulder
				{
					OFFSET 4.089649 0.569454 10.488792
					CHANNELS 3 Xrotation Yrotation Zrotation
					JOINT LeftArm
					{
						OFFSET 0.000000 -0.000002 13.757004
						CHANNELS 3 Xrotation Yrotation Zrotation
						JOINT LeftArmRoll
						{
							OFFSET 0.000000 -0.000002 6.944778
							CHANNELS 3 Xrotation Yrotation Zrotation
							JOINT LeftForeArm
							{
								OFFSET 0.000000 -0.000004 20.227692
								CHANNELS 3 Xrotation Yrotation Zrotation
								JOINT LeftForeArmRoll
								{
									OFFSET 0.000000 0.000000 7.793121
									CHANNELS 3 Xrotation Yrotation Zrotation
									JOINT LeftHand
									{
										OFFSET 0.000000 -0.000004 15.639099
										CHANNELS 3 Xrotation Yrotation Zrotation
										End Site
										{
											OFFSET 0.000000 0.000000 0.100006
										}
									}
								}
							}
						}
					}
				}
			}
		}
	}
	JOINT RightUpLeg
	{
		OFFSET -6.914162 1.063580 -1.267883
		CHANNELS 3 Xrotation Yrotation Zrotation
		JOINT RightUpLegRoll
		{
			OFFSET 0.000000 -0.000004 18.337799
			CHANNELS 3 Xrotation Yrotation Zrotation
			JOINT RightLeg
			{
				OFFSET 0.000000 0.000004 -22.708496
				CHANNELS 3 Xrotation Yrotation Zrotation
				JOINT RightLegRoll
				{
					OFFSET 0.000000 -0.000004 22.782799
					CHANNELS 3 Xrotation Yrotation Zrotation
					JOINT RightFoot
					{
						OFFSET 0.000000 -0.000002 18.962898
						CHANNELS 3 Xrotation Yrotation Zrotation
						JOINT RightToeBase
						{
							OFFSET 0.000000 -0.000002 15.852005
							CHANNELS 3 Xrotation Yrotation Zrotation
							End Site
							{
								OFFSET 0.006718 0.884892 7.677002
							}
						}
					}
				}
			}
		}
	}
	JOINT LeftUpLeg
	{
		OFFSET 6.914162 1.063580 -1.267883
		CHANNELS 3 Xrotation Yrotation Zrotation
		JOINT LeftUpLegRoll
		{
			OFFSET 0.000000 -0.000004 18.337898
			CHANNELS 3 Xrotation Yrotation Zrotation
			JOINT LeftLeg
			{
				OFFSET 0.000000 -0.000002 22.708397
				CHANNELS 3 Xrotation Yrotation Zrotation
				JOINT LeftLegRoll
				{
					OFFSET 0.000000 -0.000004 22.993393
					CHANNELS 3 Xrotation Yrotation Zrotation
					JOINT LeftFoot
					{
						OFFSET 0.000000 -0.000004 18.752197
						CHANNELS 3 Xrotation Yrotation Zrotation
						JOINT LeftToeBase
						{
							OFFSET 0.000000 -0.000002 15.852005
							CHANNELS 3 Xrotation Yrotation Zrotation
							End Site
							{
								OFFSET -0.030113 0.884892 7.677002
							}
						}
					}
				}
			}
		}
	}
}
MOTION
Frames: 10
Frame Time: 0.041667
54.274601 -17.395117 94.216301 -5.337852 -0.053122 -0.440231 -0.734934 0.173416 0.337824 2.532023 0.332927 0.676074 4.177053 0.341001 0.672038 15.464243 1.620957 -1.055475 -13.257101 -3.087927 -1.126711 -21.926692 -78.506536 -25.542093 -61.232284 -95.982715 -54.672519 0.000002 -0.000003 0.000004 28.490138 -13.591802 2.488159 -0.000003 0.000001 -3.000001 -5.000350 -7.998722 0.000232 4.756882 67.468807 -4.273576 12.538820 105.316743 -13.125325 -0.000001 -0.000000 0.000000 41.050902 10.675938 -1.312337 -0.000003 -0.000015 2.999999 -4.999664 7.998748 -0.000027 1.250925 -174.514298 1.995543 -179.999991 0.000005 -0.994006 170.200418 -1.259364 -0.790496 -0.000006 -0.000000 -0.009659 69.619203 5.764080 5.047272 25.457264 -7.355625 0.000571 1.785072 178.122905 6.000700 -0.000005 -0.000004 -1.321641 -10.210831 4.140181 0.624702 -0.000001 -0.000001 -0.185371 72.136087 -7.113112 -1.275153 25.456965 7.355617 -0.000010 
54.283100 -17.458416 94.220901 -5.347816 -0.057304 -0.434205 -0.731976 0.173649 0.337725 2.537933 0.334336 0.675870 4.182965 0.342408 0.671818 15.412151 1.637686 -1.059508 -13.235334 -3.124508 -1.131704 -21.960240 -78.522880 -25.577462 -60.750018 -95.909462 -54.079764 0.000002 -0.000002 0.000005 28.715823 -13.501320 2.477743 -0.000007 0.000001 -3.000000 -5.000350 -7.998720 0.000232 4.769407 67.483977 -4.285429 12.580981 105.352820 -13.418637 -0.000000 0.000000 0.000000 41.172691 10.527652 -1.270680 -0.000003 -0.000015 3.000001 -4.999666 7.998748 -0.000027 1.257334 -174.511306 1.996431 -179.999991 0.000005 -0.994006 170.183889 -1.255357 -0.790177 -0.000006 -0.000001 -0.009582 69.632078 5.763906 5.048271 25.457259 -7.355626 0.000571 1.800380 178.126935 6.002123 -0.000005 -0.000004 -1.321660 -10.205293 4.138294 0.624553 -0.000001 -0.000000 -0.185421 72.133689 -7.112509 -1.277010 25.456964 7.355616 -0.000010 
54.281601 -17.447714 94.219795 -5.357793 -0.061616 -0.428329 -0.729182 0.173790 0.337622 2.543514 0.335597 0.675659 4.188545 0.343666 0.671591 15.363684 1.657324 -1.063818 -13.215605 -3.163620 -1.137016 -21.991674 -78.538740 -25.610592 -60.254358 -95.839398 -53.469572 0.000001 -0.000003 0.000004 28.931565 -13.411763 2.465170 -0.000008 0.000001 -3.000000 -5.000352 -7.998722 0.000232 4.786667 67.501612 -4.302229 12.621689 105.386814 -13.711857 -0.000001 -0.000000 0.000000 41.289979 10.380000 -1.227365 -0.000002 -0.000015 3.000000 -4.999666 7.998749 -0.000027 1.263649 -174.508328 1.997571 -179.999991 0.000005 -0.994006 170.167101 -1.251350 -0.790872 -0.000006 -0.000001 -0.009526 69.645130 5.763674 5.049453 25.457263 -7.355625 0.000571 1.815864 178.129927 6.004173 -0.000005 -0.000004 -1.321690 -10.199545 4.135848 0.624385 -0.000001 -0.000000 -0.185496 72.131360 -7.111779 -1.279344 25.456962 7.355615 -0.000010 
54.280300 -17.424116 94.217590 -5.367794 -0.066019 -0.422556 -0.726502 0.173869 0.337518 2.548874 0.336754 0.675443 4.193906 0.344820 0.671361 15.317736 1.679005 -1.068313 -13.197414 -3.204519 -1.142553 -22.021338 -78.554101 -25.641857 -59.745563 -95.771751 -52.843408 0.000002 -0.000003 0.000004 29.140152 -13.322884 2.450849 -0.000007 0.000001 -3.000001 -5.000346 -7.998720 0.000231 4.807212 67.520948 -4.322461 12.661766 105.418738 -14.005453 -0.000001 0.000000 0.000000 41.404101 10.232844 -1.182715 0.000001 -0.000015 3.000001 -4.999663 7.998749 -0.000027 1.269903 -174.505350 1.998896 -179.999991 0.000005 -0.994007 170.150148 -1.246360 -0.790387 -0.000006 -0.000000 -0.009482 69.658210 5.763513 5.050443 25.457259 -7.355625 0.000571 1.831468 178.133956 6.006702 -0.000005 -0.000004 -1.321730 -10.193893 4.133008 0.624224 -0.000001 -0.000001 -0.185587 72.129086 -7.110918 -1.281854 25.456965 7.355616 -0.000010 
54.285900 -17.444815 94.219101 -5.377795 -0.070476 -0.416845 -0.723886 0.173910 0.337411 2.554104 0.337851 0.675224 4.199136 0.345915 0.671129 15.273097 1.701860 -1.072893 -13.180132 -3.246435 -1.148209 -22.050248 -78.569312 -25.672314 -59.222733 -95.705785 -52.201541 0.000001 -0.000003 0.000004 29.344699 -13.234661 2.435393 -0.000006 0.000001 -3.000000 -5.000351 -7.998722 0.000232 4.829666 67.541234 -4.344688 12.700394 105.450594 -14.298121 -0.000000 0.000000 -0.000000 41.516694 10.086155 -1.137195 -0.000001 -0.000015 3.000000 -4.999666 7.998748 -0.000027 1.276129 -174.501348 2.000351 -179.999991 0.000004 -0.994006 170.133100 -1.242352 -0.791069 -0.000006 -0.000000 -0.009447 69.671290 5.763381 5.051440 25.457263 -7.355625 0.000571 1.847131 178.137972 6.009501 -0.000005 -0.000004 -1.321779 -10.188138 4.129943 0.624054 -0.000001 -0.000001 -0.185688 72.126804 -7.110061 -1.284462 25.456964 7.355616 -0.000010 
54.285000 -17.450312 94.217201 -5.387797 -0.074948 -0.411150 -0.721285 0.173943 0.337305 2.559295 0.338934 0.675003 4.204337 0.346995 0.670895 15.228969 1.725010 -1.077472 -13.163065 -3.288607 -1.153875 -22.079159 -78.584537 -25.702763 -58.685641 -95.640735 -51.545047 0.000002 -0.000003 0.000004 29.548157 -13.146732 2.419136 -0.000008 0.000001 -3.000001 -5.000348 -7.998720 0.000232 4.852639 67.561813 -4.367460 12.739128 105.481439 -14.591080 0.000000 0.000000 0.000000 41.628869 9.939681 -1.090905 -0.000004 -0.000015 3.000001 -4.999664 7.998748 -0.000028 1.282344 -174.498370 2.001813 -179.999991 0.000005 -0.994006 170.116011 -1.238344 -0.790753 -0.000006 -0.000000 -0.009414 69.684479 5.763215 5.052525 25.457259 -7.355625 0.000571 1.862815 178.141989 6.012360 -0.000005 -0.000005 -1.321830 -10.182383 4.126817 0.623883 -0.000001 -0.000000 -0.185791 72.124523 -7.109172 -1.287167 25.456964 7.355616 -0.000010 
54.286201 -17.457319 94.218094 -5.397805 -0.079396 -0.405426 -0.718655 0.173994 0.337200 2.564565 0.340045 0.674784 4.209598 0.348104 0.670663 15.184035 1.747586 -1.081952 -13.145600 -3.330273 -1.159444 -22.108366 -78.599727 -25.733523 -58.131924 -95.575916 -50.872758 0.000002 -0.000003 0.000004 29.753609 -13.058885 2.402528 -0.000005 0.000001 -3.000000 -5.000349 -7.998721 0.000232 4.874710 67.581894 -4.389290 12.777167 105.513288 -14.883059 0.000000 -0.000001 -0.000000 41.742264 9.793407 -1.044299 -0.000001 -0.000014 3.000001 -4.999664 7.998750 -0.000028 1.288579 -174.494394 2.003240 -179.999991 0.000005 -0.994006 170.098976 -1.234337 -0.791430 -0.000005 -0.000001 -0.009376 69.697648 5.763016 5.053605 25.457261 -7.355625 0.000572 1.878467 178.145991 6.015094 -0.000005 -0.000004 -1.321870 -10.176629 4.123810 0.623715 -0.000000 -0.000001 -0.185890 72.122242 -7.108313 -1.289777 25.456964 7.355616 -0.000010 
54.290600 -17.448011 94.214493 -5.407796 -0.083782 -0.399631 -0.715938 0.174091 0.337096 2.569986 0.341231 0.674569 4.215018 0.349288 0.670433 15.137385 1.768726 -1.086251 -13.127017 -3.370674 -1.164808 -22.138918 -78.615252 -25.765709 -57.560702 -95.510558 -50.185037 0.000002 -0.000003 0.000004 29.963948 -12.971110 2.386055 -0.000004 0.000001 -3.000000 -5.000349 -7.998721 0.000232 4.894465 67.600650 -4.408698 12.815248 105.546176 -15.174397 -0.000001 0.000000 0.000000 41.858169 9.647080 -0.997493 -0.000006 -0.000015 3.000001 -4.999661 7.998748 -0.000028 1.294858 -174.491389 2.004520 -179.999991 0.000005 -0.994006 170.082065 -1.230344 -0.791108 -0.000007 -0.000000 -0.009329 69.710618 5.762862 5.054703 25.457264 -7.355625 0.000572 1.894033 178.150007 6.017512 -0.000005 -0.000004 -1.321909 -10.170877 4.121088 0.623550 -0.000001 -0.000001 -0.185976 72.119988 -7.107482 -1.292290 25.456967 7.355617 -0.000010 
54.292999 -17.459415 94.215195 -5.417765 -0.088068 -0.393720 -0.713097 0.174259 0.336995 2.575666 0.342537 0.674358 4.220700 0.350590 0.670207 15.087814 1.787544 -1.090269 -13.106704 -3.409061 -1.169857 -22.171578 -78.631255 -25.800107 -56.970570 -95.443916 -49.481647 0.000002 -0.000002 0.000004 30.182141 -12.883198 2.370085 -0.000006 0.000001 -3.000001 -5.000349 -7.998721 0.000231 4.910480 67.617623 -4.424202 12.852564 105.582096 -15.463845 0.000000 0.000001 0.000000 41.978008 9.500645 -0.950806 0.000002 -0.000015 3.000000 -4.999663 7.998750 -0.000027 1.301193 -174.488425 2.005586 -179.999991 0.000005 -0.994006 170.065386 -1.225357 -0.791601 -0.000006 -0.000000 -0.009266 69.723602 5.762704 5.055700 25.457264 -7.355625 0.000570 1.909458 178.153026 6.019376 -0.000005 -0.000004 -1.321940 -10.165233 4.118808 0.623394 -0.000001 -0.000001 -0.186043 72.117659 -7.106783 -1.294425 25.456964 7.355617 -0.000010 
54.295898 -17.455414 94.214394 -5.427730 -0.092215 -0.387647 -0.710077 0.174528 0.336897 2.581706 0.344005 0.674155 4.226740 0.352056 0.669987 15.034320 1.803165 -1.093923 -13.084059 -3.444650 -1.174484 -22.206687 -78.647716 -25.837089 -56.358961 -95.375266 -48.761318 0.000002 -0.000004 0.000004 30.411264 -12.794931 2.354976 -0.000006 0.000001 -3.000001 -5.000350 -7.998720 0.000231 4.921306 67.631720 -4.434280 12.890657 105.620126 -15.752568 0.000000 0.000001 -0.000000 42.103110 9.354095 -0.904538 -0.000004 -0.000015 3.000000 -4.999664 7.998750 -0.000028 1.307639 -174.485420 2.006373 -179.999991 0.000005 -0.994006 170.048938 -1.221352 -0.791261 -0.000005 -0.000000 -0.009181 69.736457 5.762499 5.056798 25.457263 -7.355625 0.000571 1.924702 178.156032 6.020524 -0.000005 -0.000004 -1.321961 -10.159696 4.117136 0.623247 -0.000001 -0.000001 -0.186084 72.115193 -7.106244 -1.296299 25.456969 7.355618 -0.000010 
